PathFileType	4	(x/y/z)	S09_M20_T18
DataRate	CameraRate	NumFrames	NumMarkers	Units	OrigDataRate	OrigDataStartFrame	OrigNumFrames
240	240	4	51	mm	240	210	558
Frame#	Time	Sternum			R.Acromium			L.Acromium			Top.Head			R.ASIS			L.ASIS			R.PSIS			L.PSIS			R.Great.Tro			L.Great.Tro			R.Iliac.Crest			L.Iliac.Crest			V.Sacral			R.Thigh.Upper.Post			R.Thigh.Lower.Ant			R.Thigh.Lower.Post			R.Thigh.Upper.Ant			R.Knee.Lat			R.Knee.Med			R.Shank.Upper.Post			R.Shank.Lower.Ant			R.Shank.Lower.Post			R.Shank.Upper.Ant			R.Ankle.Lat			R.Ankle.Med			R.Heel.Upper			R.Heel.Med			R.Heel.Lat			R.Toe.Lat			R.Toe.Med			R.Toe.Tip			L.Thigh.Upper.Post			L.Thigh.Lower.Ant			L.Thigh.Lower.Post			L.Thigh.Upper.Ant			L.Knee.Lat			L.Knee.Med			L.Shank.Upper.Post			L.Shank.Lower.Ant			L.Shank.Lower.Post			L.Shank.Upper.Ant			L.Ankle.Lat			L.Ankle.Med			L.Heel.Upper			L.Heel.Med			L.Heel.Lat			L.Toe.Lat			L.Toe.Med			L.Toe.Tip			Cervical.Spine			Back			
		X1	Y1	Z1	X2	Y2	Z2	X3	Y3	Z3	X4	Y4	Z4	X5	Y5	Z5	X6	Y6	Z6	X7	Y7	Z7	X8	Y8	Z8	X9	Y9	Z9	X10	Y10	Z10	X11	Y11	Z11	X12	Y12	Z12	X13	Y13	Z13	X14	Y14	Z14	X15	Y15	Z15	X16	Y16	Z16	X17	Y17	Z17	X18	Y18	Z18	X19	Y19	Z19	X20	Y20	Z20	X21	Y21	Z21	X22	Y22	Z22	X23	Y23	Z23	X24	Y24	Z24	X25	Y25	Z25	X26	Y26	Z26	X27	Y27	Z27	X28	Y28	Z28	X29	Y29	Z29	X30	Y30	Z30	X31	Y31	Z31	X32	Y32	Z32	X33	Y33	Z33	X34	Y34	Z34	X35	Y35	Z35	X36	Y36	Z36	X37	Y37	Z37	X38	Y38	Z38	X39	Y39	Z39	X40	Y40	Z40	X41	Y41	Z41	X42	Y42	Z42	X43	Y43	Z43	X44	Y44	Z44	X45	Y45	Z45	X46	Y46	Z46	X47	Y47	Z47	X48	Y48	Z48	X49	Y49	Z49	X50	Y50	Z50	X51	Y51	Z51	

210	0.87083	251	1140.1	276.2	91.498	1376.1	434.21	102.93	1378.4	122.13	95.121	1678.9	275.11	242.9	979.21	365.39	194.74	964.6	121.81	10.558	984.92	335.61	3.4783	991.13	246.19	193.63	898.29	456.49	93.307	880.76	70.482	150.99	1053.5	430.34	77.446	1056.2	107.05	-12.954	953.39	289.93	289.13	663.71	432.4	389.48	603.65	376.65	318.79	578.16	402	354.86	682.23	408.71	398.08	526.73	374.1	374.85	510.34	254.44	371.92	340.39	393.38	449.88	295.23	376.64	384.82	265.07	385.68	431.97	366.68	387.27	445.02	91.136	371.92	466.11	104.6	282.64	387.68	70.872	319.67	402.78	41.134	290.82	391.44	39.845	354.71	547.19	55.528	408.35	595.71	72.72	307.71	632.56	103.54	352.93	-35.622	665.79	144.16	-4.5633	546.47	114.57	-53.87	577.11	153.57	12.224	633.41	99.36	-48.245	480.63	124.64	8.107	464.59	247.46	-166.34	410.61	119.14	-180.23	300.99	123.76	-217.64	353.61	127.65	-128.32	358.91	116.82	-340.47	189.06	147.57	-324.17	172.15	237.13	-414.85	205.93	205.68	-419.74	181.63	239.59	-435.83	185.52	179.54	-327.89	60.629	114.23	-287.6	42.606	219.82	-248.08	39.623	160.96	14.455	1422.4	285.92	-14.198	1149.9	268.89
211	0.875	257.55	1140.6	277.34	97.399	1376.5	435.09	108.9	1378.6	123.03	100.5	1679.2	275.79	249.28	980.01	366.71	201.9	964.37	123.13	16.899	985.3	335.91	10.169	990.99	246.41	199.99	899.57	457.67	100.63	880.18	71.453	157.03	1054.2	431.2	84.755	1055.9	107.47	-6.3582	953.41	290.22	296.29	664.76	433.48	396.38	604.83	377.19	325.94	579.23	403.04	361.8	683.39	409.4	405.02	527.42	374.33	381.54	511.3	254.99	376.88	341.12	394.17	454.16	295.05	376.83	388.8	265.67	386.36	437.18	366.71	387.57	446.44	90.991	372.15	467.46	104.28	282.81	388.5	71.449	319.93	403.18	41.585	290.96	391.96	40.301	354.88	548.21	54.024	408.26	596.8	70.55	307.41	634.32	100.68	352.64	-27.847	664.92	144.88	3.5148	545.84	114.72	-45.751	576.14	154.02	19.971	632.88	99.819	-40.103	480.21	124.45	16.709	463.45	247.05	-158.71	411.51	119.28	-173.66	302.01	123.31	-210.53	354.96	127.71	-121.23	359.46	116.43	-335.01	191.34	147.31	-318.27	173.97	236.68	-407.91	210.3	205.99	-413.33	186.28	240.03	-429.69	190.51	180.04	-326.55	62.206	114.4	-286.25	42.998	219.7	-247.79	39.368	160.8	20.379	1422.5	286.76	-7.7251	1150	269.6
212	0.87917	264.05	1141.1	278.5	103.28	1376.9	435.95	114.88	1378.8	123.93	105.89	1679.5	276.47	255.59	980.88	368.07	209.03	964.18	124.48	23.168	985.7	336.16	16.8	990.89	246.59	206.23	900.82	458.84	107.94	879.62	72.426	162.96	1054.9	432.06	92.065	1055.6	107.86	0.17161	953.45	290.46	303.33	665.78	434.58	403.18	605.98	377.78	332.98	580.26	404.1	368.65	684.52	410.12	411.83	528.06	374.6	388.26	512.23	255.58	381.72	341.82	394.99	458.32	294.85	377.05	392.67	266.25	387.07	442.26	366.71	387.91	447.76	90.855	372.39	468.71	104	282.99	389.25	71.977	320.18	403.55	42.012	291.11	392.43	40.72	355.05	549.13	52.63	408.21	597.78	68.525	307.14	635.93	97.967	352.4	-20.008	664	145.56	11.741	545.18	114.83	-37.514	575.11	154.41	27.814	632.33	100.25	-31.787	479.76	124.22	25.478	462.31	246.6	-150.88	412.39	119.42	-166.9	303.02	122.85	-203.22	356.29	127.77	-113.95	360	116.01	-329.3	193.62	147.05	-312.13	175.76	236.23	-400.61	214.69	206.31	-406.56	190.99	240.46	-423.19	195.59	180.55	-325.06	63.92	114.6	-284.76	43.496	219.61	-247.43	39.077	160.63	26.296	1422.7	287.57	-1.2841	1150.1	270.24
213	0.88333	270.5	1141.6	279.68	109.14	1377.4	436.8	120.86	1379.1	124.82	111.27	1679.9	277.14	261.84	981.79	369.46	216.11	964.04	125.88	29.371	986.12	336.38	23.368	990.83	246.74	212.35	902.03	459.99	115.23	879.1	73.404	168.78	1055.6	432.92	99.365	1055.4	108.26	6.6358	953.53	290.67	310.25	666.75	435.7	409.86	607.08	378.4	339.88	581.25	405.17	375.38	685.6	410.88	418.47	528.62	374.92	394.96	513.12	256.19	386.43	342.47	395.83	462.36	294.63	377.29	396.42	266.79	387.8	447.2	366.67	388.28	448.98	90.727	372.64	469.87	103.75	283.18	389.93	72.458	320.42	403.88	42.413	291.26	392.87	41.103	355.23	549.96	51.345	408.21	598.65	66.639	306.91	637.39	95.409	352.18	-12.111	663.03	146.19	20.107	544.49	114.91	-29.165	574.03	154.75	35.746	631.77	100.64	-23.304	479.28	123.96	34.41	461.15	246.13	-142.87	413.25	119.55	-159.94	304.01	122.38	-195.7	357.59	127.83	-106.48	360.53	115.58	-323.33	195.9	146.78	-305.76	177.52	235.78	-392.93	219.12	206.62	-399.42	195.73	240.89	-416.31	200.73	181.06	-323.41	65.78	114.82	-283.12	44.113	219.53	-246.96	38.752	160.44	32.203	1422.9	288.38	5.1224	1150.3	270.84
